# xmcd CD database file
#
# Track frame offsets:
#	150
#	24855
#	43095
#	62829
#	84621
#	102786
#	123860
#	145003
#	161460
#	182666
#	199610
#	217207
#	233005
#	245247
#
# Disc length: 3613 seconds
#
# Revision: 8
# Processed by: cddbd v1.5.2PL0 Copyright (c) Steve Scherf et al.
# Submitted via: CDex 2.21
#
DISCID=bd0e1b0e
DTITLE=Travis Tritt - The Calm After
DYEAR=2013
DGENRE=Country
TTITLE0=Mudcat Moan  You Never Take Me Dancing
TTITLE1=[I Wanna] Feel Too Much
TTITLE2=Doesn't the Good Outweigh the Bad
TTITLE3=Sometimes Love Just Ain't Enough (feat. Tyler Reese Tritt)
TTITLE4=What If Love Hangs On
TTITLE5=Rub off on Me
TTITLE6=Stay With Me
TTITLE7=Something Stronger Than Me
TTITLE8=The Storm
TTITLE9=I Don't Know How I Got By
TTITLE10=The Pressure Is On
TTITLE11=Should've Listened
TTITLE12=High Time for Gettin' down
TTITLE13=Somehow, Somewhere, Someway
EXTD=YEAR: 2013
EXTT0=
EXTT1=
EXTT2=
EXTT3=
EXTT4=
EXTT5=
EXTT6=
EXTT7=
EXTT8=
EXTT9=
EXTT10=
EXTT11=
EXTT12=
EXTT13=
PLAYORDER=
